<mxfile host="app.diagrams.net" agent="Mozilla/5.0 (Macintosh; Intel Mac OS X 10_15_7) AppleWebKit/537.36 (KHTML, like Gecko) Chrome/141.0.0.0 Safari/537.36" version="28.2.8">
  <diagram name="Page-1" id="YUu7Jz51WMdDNM4Fb-Sl">
    <mxGraphModel dx="710" dy="665" grid="1" gridSize="10" guides="1" tooltips="1" connect="1" arrows="1" fold="1" page="1" pageScale="1" pageWidth="850" pageHeight="1100" math="0" shadow="0">
      <root>
        <mxCell id="0" />
        <mxCell id="1" parent="0" />
        <mxCell id="ANZAXJd_U84mmR-5pJEF-1" value="&lt;font&gt;Calculator UML | Jamie Duersch | 10/28/25&lt;/font&gt;" style="text;html=1;whiteSpace=wrap;strokeColor=none;fillColor=none;align=center;verticalAlign=middle;rounded=0;fontSize=30;" vertex="1" parent="1">
          <mxGeometry y="18" width="850" height="30" as="geometry" />
        </mxCell>
        <mxCell id="ANZAXJd_U84mmR-5pJEF-2" value="Calculator" style="swimlane;fontStyle=1;align=center;verticalAlign=top;childLayout=stackLayout;horizontal=1;startSize=26;horizontalStack=0;resizeParent=1;resizeParentMax=0;resizeLast=0;collapsible=1;marginBottom=0;whiteSpace=wrap;html=1;" vertex="1" parent="1">
          <mxGeometry x="200" y="70" width="170" height="220" as="geometry" />
        </mxCell>
        <mxCell id="ANZAXJd_U84mmR-5pJEF-3" value="+ numButtons: Button[]&lt;div&gt;&lt;div&gt;+ buttons: Button[]&lt;/div&gt;&lt;/div&gt;&lt;div&gt;+ l,r,result: float&lt;/div&gt;&lt;div&gt;+dVal: String&lt;/div&gt;&lt;div&gt;+op: String&lt;/div&gt;&lt;div&gt;+left: boolean&lt;/div&gt;&lt;div&gt;&lt;br&gt;&lt;/div&gt;" style="text;strokeColor=none;fillColor=none;align=left;verticalAlign=top;spacingLeft=4;spacingRight=4;overflow=hidden;rotatable=0;points=[[0,0.5],[1,0.5]];portConstraint=eastwest;whiteSpace=wrap;html=1;" vertex="1" parent="ANZAXJd_U84mmR-5pJEF-2">
          <mxGeometry y="26" width="170" height="104" as="geometry" />
        </mxCell>
        <mxCell id="ANZAXJd_U84mmR-5pJEF-4" value="" style="line;strokeWidth=1;fillColor=none;align=left;verticalAlign=middle;spacingTop=-1;spacingLeft=3;spacingRight=3;rotatable=0;labelPosition=right;points=[];portConstraint=eastwest;strokeColor=inherit;" vertex="1" parent="ANZAXJd_U84mmR-5pJEF-2">
          <mxGeometry y="130" width="170" height="8" as="geometry" />
        </mxCell>
        <mxCell id="ANZAXJd_U84mmR-5pJEF-5" value="+ setup(): void&lt;div&gt;+draw(): void&lt;/div&gt;&lt;div&gt;+mousePressed(): void&lt;/div&gt;&lt;div&gt;+updateDisplay(): void&lt;/div&gt;&lt;div&gt;+performCalculation(): void&lt;/div&gt;" style="text;strokeColor=none;fillColor=none;align=left;verticalAlign=top;spacingLeft=4;spacingRight=4;overflow=hidden;rotatable=0;points=[[0,0.5],[1,0.5]];portConstraint=eastwest;whiteSpace=wrap;html=1;" vertex="1" parent="ANZAXJd_U84mmR-5pJEF-2">
          <mxGeometry y="138" width="170" height="82" as="geometry" />
        </mxCell>
        <mxCell id="ANZAXJd_U84mmR-5pJEF-6" value="Button" style="swimlane;fontStyle=1;align=center;verticalAlign=top;childLayout=stackLayout;horizontal=1;startSize=26;horizontalStack=0;resizeParent=1;resizeParentMax=0;resizeLast=0;collapsible=1;marginBottom=0;whiteSpace=wrap;html=1;" vertex="1" parent="1">
          <mxGeometry x="480" y="70" width="160" height="190" as="geometry" />
        </mxCell>
        <mxCell id="ANZAXJd_U84mmR-5pJEF-7" value="+ x,y,w,h:int&lt;div&gt;+ c1, c2: color&lt;/div&gt;&lt;div&gt;+ val: String&lt;/div&gt;&lt;div&gt;+ over: boolean&lt;/div&gt;" style="text;strokeColor=none;fillColor=none;align=left;verticalAlign=top;spacingLeft=4;spacingRight=4;overflow=hidden;rotatable=0;points=[[0,0.5],[1,0.5]];portConstraint=eastwest;whiteSpace=wrap;html=1;" vertex="1" parent="ANZAXJd_U84mmR-5pJEF-6">
          <mxGeometry y="26" width="160" height="74" as="geometry" />
        </mxCell>
        <mxCell id="ANZAXJd_U84mmR-5pJEF-8" value="" style="line;strokeWidth=1;fillColor=none;align=left;verticalAlign=middle;spacingTop=-1;spacingLeft=3;spacingRight=3;rotatable=0;labelPosition=right;points=[];portConstraint=eastwest;strokeColor=inherit;" vertex="1" parent="ANZAXJd_U84mmR-5pJEF-6">
          <mxGeometry y="100" width="160" height="8" as="geometry" />
        </mxCell>
        <mxCell id="ANZAXJd_U84mmR-5pJEF-9" value="+ Button(x,y,w,h,val,c1,c2):&lt;div&gt;void&lt;/div&gt;&lt;div&gt;+ display(): void&lt;/div&gt;&lt;div&gt;+hover(tempX.tempY): void&amp;nbsp;&lt;/div&gt;" style="text;strokeColor=none;fillColor=none;align=left;verticalAlign=top;spacingLeft=4;spacingRight=4;overflow=hidden;rotatable=0;points=[[0,0.5],[1,0.5]];portConstraint=eastwest;whiteSpace=wrap;html=1;" vertex="1" parent="ANZAXJd_U84mmR-5pJEF-6">
          <mxGeometry y="108" width="160" height="82" as="geometry" />
        </mxCell>
        <mxCell id="ANZAXJd_U84mmR-5pJEF-10" style="edgeStyle=orthogonalEdgeStyle;rounded=0;orthogonalLoop=1;jettySize=auto;html=1;entryX=1;entryY=0.5;entryDx=0;entryDy=0;" edge="1" parent="1" source="ANZAXJd_U84mmR-5pJEF-7" target="ANZAXJd_U84mmR-5pJEF-3">
          <mxGeometry relative="1" as="geometry" />
        </mxCell>
      </root>
    </mxGraphModel>
  </diagram>
</mxfile>
